<svg xmlns="http://www.w3.org/2000/svg" version="1.1" xmlns:xlink="http://www.w3.org/1999/xlink" xmlns:svgjs="http://svgjs.dev/svgjs" width="1000" height="320" viewBox="0 0 1000 320"><g transform="matrix(1,0,0,1,-0.6060605949252249,0.5428870648417785)"><svg viewBox="0 0 396 127" data-background-color="#ffffff" preserveAspectRatio="xMidYMid meet" height="320" width="1000" xmlns="http://www.w3.org/2000/svg" xmlns:xlink="http://www.w3.org/1999/xlink"><g id="tight-bounds" transform="matrix(1,0,0,1,0.24000000440958047,-0.21545576434633062)"><svg viewBox="0 0 395.52 127.4309132210537" height="127.4309132210537" width="395.52"><g><svg viewBox="0 0 395.52 127.4309132210537" height="127.4309132210537" width="395.52"><g><svg viewBox="0 0 395.52 127.4309132210537" height="127.4309132210537" width="395.52"><g id="textblocktransform"><svg viewBox="0 0 395.52 127.4309132210537" height="127.4309132210537" width="395.52" id="textblock"><g><svg viewBox="0 0 395.52 88.54049315068492" height="88.54049315068492" width="395.52"><g transform="matrix(1,0,0,1,0,0)"><svg width="395.52" viewBox="1.3700000047683716 -42.189998626708984 213.85000610351562 47.87999725341797" height="88.54049315068492" data-palette-color="#ee3e38"><path d="M32.79-26.61L32.79-26.61 31.35-25.66Q30.03-27.61 27.92-28.75 25.81-29.88 23.34-29.88L23.34-29.88Q19.34-29.88 16.5-27.05 13.67-24.22 13.67-20.21 13.67-16.21 16.5-13.38 19.34-10.55 23.34-10.55L23.34-10.55Q25.81-10.55 27.92-11.69 30.03-12.84 31.35-14.79L31.35-14.79 32.76-13.77Q31.2-11.47 28.71-10.13 26.22-8.79 23.34-8.79L23.34-8.79Q21.02-8.79 18.91-9.69 16.8-10.6 15.26-12.13 13.72-13.67 12.82-15.78 11.91-17.9 11.91-20.21 11.91-22.53 12.82-24.65 13.72-26.76 15.26-28.3 16.8-29.83 18.91-30.74 21.02-31.64 23.34-31.64L23.34-31.64Q26.25-31.64 28.74-30.29 31.23-28.93 32.79-26.61ZM35.69-28.61L35.69-28.61 34.23-27.66Q32.42-30.3 29.55-31.85 26.68-33.4 23.34-33.4L23.34-33.4Q19.75-33.4 16.72-31.63 13.7-29.86 11.93-26.83 10.16-23.8 10.16-20.21 10.16-16.63 11.93-13.6 13.7-10.57 16.72-8.8 19.75-7.03 23.34-7.03L23.34-7.03Q26.68-7.03 29.57-8.59 32.45-10.16 34.25-12.82L34.25-12.82 35.69-11.82Q33.64-8.79 30.38-7.03 27.12-5.27 23.34-5.27L23.34-5.27Q19.29-5.27 15.84-7.28 12.4-9.28 10.4-12.72 8.4-16.16 8.4-20.21 8.4-24.27 10.4-27.71 12.4-31.15 15.84-33.15 19.29-35.16 23.34-35.16L23.34-35.16Q27.12-35.16 30.38-33.4 33.64-31.64 35.69-28.61ZM38.62-30.57L38.62-30.57 37.16-29.61Q34.86-32.98 31.21-34.95 27.56-36.91 23.34-36.91L23.34-36.91Q19.95-36.91 16.85-35.6 13.75-34.28 11.51-32.04 9.28-29.81 7.96-26.71 6.64-23.61 6.64-20.21 6.64-16.82 7.96-13.72 9.28-10.62 11.51-8.39 13.75-6.15 16.85-4.83 19.95-3.52 23.34-3.52L23.34-3.52Q27.59-3.52 31.23-5.49 34.86-7.47 37.16-10.84L37.16-10.84 38.57-9.79Q36.04-6.08 32.02-3.92 28-1.76 23.34-1.76L23.34-1.76Q18.33-1.76 14.09-4.24 9.84-6.71 7.36-10.96 4.88-15.21 4.88-20.21 4.88-25.22 7.36-29.47 9.84-33.72 14.09-36.19 18.33-38.67 23.34-38.67L23.34-38.67Q28.03-38.67 32.06-36.49 36.08-34.3 38.62-30.57ZM41.5-32.57L41.5-32.57 40.04-31.62Q37.26-35.69 32.85-38.06 28.44-40.43 23.34-40.43L23.34-40.43Q19.24-40.43 15.49-38.83 11.74-37.23 9.03-34.52 6.32-31.81 4.72-28.06 3.13-24.32 3.13-20.21 3.13-16.11 4.72-12.37 6.32-8.62 9.03-5.91 11.74-3.2 15.49-1.6 19.24 0 23.34 0L23.34 0Q28.44 0 32.86-2.39 37.28-4.79 40.06-8.86L40.06-8.86 41.48-7.79Q38.45-3.39 33.67-0.82 28.88 1.76 23.34 1.76L23.34 1.76Q18.87 1.76 14.81 0.01 10.74-1.73 7.8-4.68 4.86-7.62 3.11-11.68 1.37-15.75 1.37-20.21 1.37-24.68 3.11-28.75 4.86-32.81 7.8-35.75 10.74-38.7 14.81-40.44 18.87-42.19 23.34-42.19L23.34-42.19Q28.91-42.19 33.69-39.6 38.48-37.01 41.5-32.57ZM44.87 0L44.87-40.43 46.63-40.43 46.63 0 44.87 0ZM55.42 0L55.42-40.43 57.18-40.43 57.18-8.79 71.24-8.79 71.24-7.03 57.18-7.03 57.18-5.27 71.24-5.27 71.24-3.52 57.18-3.52 57.18-1.76 71.24-1.76 71.24 0 55.42 0ZM51.9 0L51.9-40.43 53.66-40.43 53.66 0 51.9 0ZM48.39 0L48.39-40.43 50.14-40.43 50.14 0 48.39 0ZM85.66 0L85.66-40.43 87.42-40.43 87.42 0 85.66 0ZM82.15 0L82.15-40.43 83.91-40.43 83.91 0 82.15 0ZM78.63 0L78.63-40.43 80.39-40.43 80.39 0 78.63 0ZM75.12 0L75.12-40.43 76.87-40.43 76.87 0 75.12 0ZM113.13-15.58L115.4-11.94 113.59-11.5 111.64-14.65 113.13-15.58ZM124.26 5.69L121.48 1.17 123.11 0.46 125.75 4.74 124.26 5.69ZM116.15-17.41L118.52-13.57 117.06-12.65 114.67-16.48 116.15-17.41ZM127.21 3.81L124.68-0.34 126.16-1.27 128.7 2.86 127.21 3.81ZM119.13-19.29L120.94-16.36 119.87-14.75 117.67-18.29 119.13-19.29ZM130.19 1.9L127.6-2.27 128.95-3.47 131.68 0.95 130.19 1.9ZM106.29-27.05Q103.46-24.22 103.46-20.21 103.46-16.21 106.29-13.38 109.12-10.55 113.13-10.55 117.13-10.55 119.96-13.38 122.8-16.21 122.8-20.21 122.8-24.22 119.96-27.05 117.13-29.88 113.13-29.88 109.12-29.88 106.29-27.05ZM102.6-15.78Q101.7-17.9 101.7-20.21 101.7-22.53 102.6-24.65 103.51-26.76 105.05-28.3 106.58-29.83 108.7-30.74 110.81-31.64 113.13-31.64 115.45-31.64 117.56-30.74 119.67-29.83 121.21-28.3 122.75-26.76 123.65-24.65 124.55-22.53 124.55-20.21 124.55-17.9 123.65-15.78 122.75-13.67 121.21-12.13 119.67-10.6 117.56-9.69 115.45-8.79 113.13-8.79 110.81-8.79 108.7-9.69 106.58-10.6 105.05-12.13 103.51-13.67 102.6-15.78ZM101.71-26.83Q99.94-23.8 99.94-20.21 99.94-16.63 101.71-13.6 103.48-10.57 106.51-8.8 109.54-7.03 113.13-7.03 116.72-7.03 119.74-8.8 122.77-10.57 124.54-13.6 126.31-16.63 126.31-20.21 126.31-23.8 124.54-26.83 122.77-29.86 119.74-31.63 116.72-33.4 113.13-33.4 109.54-33.4 106.51-31.63 103.48-29.86 101.71-26.83ZM100.19-12.72Q98.19-16.16 98.19-20.21 98.19-24.27 100.19-27.71 102.19-31.15 105.63-33.15 109.07-35.16 113.13-35.16 117.18-35.16 120.62-33.15 124.06-31.15 126.07-27.71 128.07-24.27 128.07-20.21 128.07-16.16 126.07-12.72 124.06-9.28 120.62-7.28 117.18-5.27 113.13-5.27 109.07-5.27 105.63-7.28 102.19-9.28 100.19-12.72ZM97.75-26.71Q96.43-23.61 96.43-20.21 96.43-16.82 97.75-13.72 99.06-10.62 101.3-8.39 103.53-6.15 106.63-4.83 109.73-3.52 113.13-3.52 116.52-3.52 119.62-4.83 122.72-6.15 124.96-8.39 127.19-10.62 128.51-13.72 129.83-16.82 129.83-20.21 129.83-23.61 128.51-26.71 127.19-29.81 124.96-32.04 122.72-34.28 119.62-35.6 116.52-36.91 113.13-36.91 109.73-36.91 106.63-35.6 103.53-34.28 101.3-32.04 99.06-29.81 97.75-26.71ZM97.15-10.96Q94.67-15.21 94.67-20.21 94.67-25.22 97.15-29.47 99.63-33.72 103.87-36.19 108.12-38.67 113.13-38.67 118.13-38.67 122.38-36.19 126.63-33.72 129.11-29.47 131.58-25.22 131.58-20.21 131.58-15.21 129.11-10.96 126.63-6.71 122.38-4.24 118.13-1.76 113.13-1.76 108.12-1.76 103.87-4.24 99.63-6.71 97.15-10.96ZM94.51-28.06Q92.91-24.32 92.91-20.21 92.91-16.11 94.51-12.37 96.11-8.62 98.82-5.91 101.53-3.2 105.28-1.6 109.03 0 113.13 0 117.23 0 120.98-1.6 124.72-3.2 127.43-5.91 130.14-8.62 131.74-12.37 133.34-16.11 133.34-20.21 133.34-24.32 131.74-28.06 130.14-31.81 127.43-34.52 124.72-37.23 120.98-38.83 117.23-40.43 113.13-40.43 109.03-40.43 105.28-38.83 101.53-37.23 98.82-34.52 96.11-31.81 94.51-28.06ZM92.9-11.68Q91.15-15.75 91.15-20.21 91.15-24.68 92.9-28.75 94.65-32.81 97.59-35.75 100.53-38.7 104.59-40.44 108.66-42.19 113.13-42.19 117.6-42.19 121.66-40.44 125.72-38.7 128.67-35.75 131.61-32.81 133.35-28.75 135.1-24.68 135.1-20.21 135.1-15.75 133.35-11.68 131.61-7.62 128.67-4.68 125.72-1.73 121.66 0.01 117.6 1.76 113.13 1.76 108.66 1.76 104.59 0.01 100.53-1.73 97.59-4.68 94.65-7.62 92.9-11.68ZM167.42-17.77L167.42-17.77 167.42-40.43 169.18-40.43 169.18-17.77Q169.18-14.06 166.25-11.43 163.32-8.79 159.22-8.79 155.12-8.79 152.19-11.43 149.26-14.06 149.26-17.77L149.26-17.77 149.26-40.43 151.02-40.43 151.02-17.77Q151.02-14.79 153.42-12.67 155.82-10.55 159.22-10.55 162.61-10.55 165.02-12.67 167.42-14.79 167.42-17.77ZM170.94-17.77L170.94-17.77 170.94-40.43 172.7-40.43 172.7-17.77Q172.7-15.23 171.62-12.93 170.55-10.62 168.74-8.94 166.93-7.25 164.44-6.26 161.95-5.27 159.22-5.27 156.48-5.27 153.99-6.26 151.5-7.25 149.7-8.94 147.89-10.62 146.82-12.93 145.74-15.23 145.74-17.77L145.74-17.77 145.74-40.43 147.5-40.43 147.5-17.77Q147.5-14.87 149.07-12.39 150.65-9.91 153.35-8.47 156.04-7.03 159.22-7.03 162.39-7.03 165.09-8.47 167.79-9.91 169.36-12.39 170.94-14.87 170.94-17.77ZM174.45-17.77L174.45-17.77 174.45-40.43 176.21-40.43 176.21-17.77Q176.21-14.53 174.86-11.56 173.5-8.59 171.23-6.45 168.96-4.3 165.81-3.03 162.66-1.76 159.22-1.76 155.78-1.76 152.63-3.03 149.48-4.3 147.21-6.45 144.94-8.59 143.58-11.56 142.23-14.53 142.23-17.77L142.23-17.77 142.23-40.43 143.98-40.43 143.98-17.77Q143.98-13.92 146.03-10.63 148.09-7.35 151.59-5.43 155.09-3.52 159.22-3.52 163.34-3.52 166.85-5.43 170.35-7.35 172.4-10.63 174.45-13.92 174.45-17.77ZM177.97-17.77L177.97-17.77 177.97-40.43 179.73-40.43 179.73-17.77Q179.73-12.5 176.97-8 174.21-3.49 169.48-0.87 164.76 1.76 159.22 1.76 153.68 1.76 148.95-0.87 144.23-3.49 141.47-8 138.71-12.5 138.71-17.77L138.71-17.77 138.71-40.43 140.47-40.43 140.47-17.77Q140.47-14.18 141.96-10.89 143.45-7.59 145.96-5.21 148.48-2.83 151.96-1.42 155.43 0 159.22 0 163 0 166.48-1.42 169.96-2.83 172.48-5.21 174.99-7.59 176.48-10.89 177.97-14.18 177.97-17.77ZM193.01-40.43L193.01 0 191.25 0 191.25-40.43 193.01-40.43ZM189.49-40.43L189.49 0 187.73 0 187.73-40.43 189.49-40.43ZM185.97-40.43L185.97 0 184.22 0 184.22-40.43 185.97-40.43ZM196.52-15.82L196.52-8.79 215.22-8.79 215.22-7.03 196.52-7.03 196.52-5.27 215.22-5.27 215.22-3.52 196.52-3.52 196.52-1.76 215.22-1.76 215.22 0 194.76 0 194.76-40.43 215.22-40.43 215.22-38.67 196.52-38.67 196.52-36.91 215.22-36.91 215.22-35.16 196.52-35.16 196.52-33.4 215.22-33.4 215.22-31.64 196.52-31.64 196.52-24.61 206.12-24.61 206.12-22.85 196.52-22.85 196.52-21.09 206.12-21.09 206.12-19.34 196.52-19.34 196.52-17.58 206.12-17.58 206.12-15.82 196.52-15.82Z" opacity="1" transform="matrix(1,0,0,1,0,0)" fill="#ee3e38" class="wordmark-text-0" data-fill-palette-color="primary" id="text-0"></path></svg></g></svg></g><g transform="matrix(1,0,0,1,75.54432,109.44277861172603)"><svg viewBox="0 0 244.43135999999998 17.988134609327677" height="17.988134609327677" width="244.43135999999998"><g transform="matrix(1,0,0,1,0,0)"><svg width="244.43135999999998" viewBox="1.399999976158142 -39.20000076293945 660.3299560546875 48.599998474121094" height="17.988134609327677" data-palette-color="#ffffff"><path d="M30.45-35.4L30.45-35.4Q30.25-33.3 30.18-31.33 30.1-29.35 30.1-28.3L30.1-28.3Q30.1-27.15 30.15-26.1 30.2-25.05 30.25-24.3L30.25-24.3 29.1-24.3Q28.6-28.05 27.78-30.2 26.95-32.35 25.4-33.3 23.85-34.25 20.95-34.25L20.95-34.25 18.8-34.25 18.8-5.75Q18.8-3.75 19.18-2.75 19.55-1.75 20.68-1.43 21.8-1.1 23.95-1L23.95-1 23.95 0Q22.55-0.1 20.35-0.13 18.15-0.15 15.85-0.15L15.85-0.15Q13.45-0.15 11.33-0.13 9.2-0.1 7.9 0L7.9 0 7.9-1Q10.05-1.1 11.15-1.43 12.25-1.75 12.65-2.75 13.05-3.75 13.05-5.75L13.05-5.75 13.05-34.25 10.85-34.25Q8.05-34.25 6.45-33.3 4.85-32.35 4.05-30.2 3.25-28.05 2.75-24.3L2.75-24.3 1.6-24.3Q1.7-25.05 1.73-26.1 1.75-27.15 1.75-28.3L1.75-28.3Q1.75-29.35 1.68-31.33 1.6-33.3 1.4-35.4L1.4-35.4Q3.55-35.35 6.1-35.3 8.65-35.25 11.25-35.25 13.85-35.25 15.95-35.25L15.95-35.25Q18.05-35.25 20.6-35.25 23.15-35.25 25.75-35.3 28.35-35.35 30.45-35.4ZM41.55-39.15L41.55-39.15 41.55-20.95Q42.8-24.05 45.07-25.28 47.35-26.5 49.9-26.5L49.9-26.5Q51.9-26.5 53.17-25.98 54.45-25.45 55.3-24.55L55.3-24.55Q56.2-23.6 56.6-22.1 57-20.6 57-18.05L57-18.05 57-4.65Q57-2.55 57.82-1.8 58.65-1.05 60.6-1.05L60.6-1.05 60.6 0Q59.7-0.05 57.9-0.13 56.1-0.2 54.4-0.2L54.4-0.2Q52.65-0.2 50.97-0.13 49.3-0.05 48.5 0L48.5 0 48.5-1.05Q50.2-1.05 50.9-1.8 51.6-2.55 51.6-4.65L51.6-4.65 51.6-19.45Q51.6-20.9 51.35-22.08 51.1-23.25 50.27-23.98 49.45-24.7 47.85-24.7L47.85-24.7Q45.15-24.7 43.35-22.48 41.55-20.25 41.55-16.75L41.55-16.75 41.55-4.65Q41.55-2.55 42.25-1.8 42.95-1.05 44.65-1.05L44.65-1.05 44.65 0Q43.8-0.05 42.17-0.13 40.55-0.2 38.85-0.2L38.85-0.2Q37.1-0.2 35.27-0.13 33.45-0.05 32.55 0L32.55 0 32.55-1.05Q34.5-1.05 35.32-1.8 36.15-2.55 36.15-4.65L36.15-4.65 36.15-33.15Q36.15-35.4 35.37-36.48 34.6-37.55 32.55-37.55L32.55-37.55 32.55-38.6Q34.15-38.45 35.65-38.45L35.65-38.45Q37.3-38.45 38.8-38.63 40.3-38.8 41.55-39.15ZM75.05-26.5L75.05-26.5Q79.45-26.5 81.95-23.85 84.45-21.2 84.45-15.45L84.45-15.45 67.2-15.45 67.09-16.4 79.15-16.4Q79.2-18.85 78.75-20.93 78.3-23 77.34-24.25 76.4-25.5 74.84-25.5L74.84-25.5Q72.7-25.5 71.12-23.23 69.55-20.95 69.2-15.95L69.2-15.95 69.34-15.7Q69.3-15 69.25-14.18 69.2-13.35 69.2-12.55L69.2-12.55Q69.2-9.1 70.25-6.75 71.3-4.4 73-3.23 74.7-2.05 76.45-2.05L76.45-2.05Q78.45-2.05 80.32-3.05 82.2-4.05 83.55-6.75L83.55-6.75 84.55-6.35Q83.95-4.65 82.7-3 81.45-1.35 79.5-0.33 77.55 0.7 74.95 0.7L74.95 0.7Q71.45 0.7 68.84-0.88 66.25-2.45 64.84-5.4 63.45-8.35 63.45-12.4L63.45-12.4Q63.45-16.85 64.89-20 66.34-23.15 68.97-24.83 71.59-26.5 75.05-26.5ZM109.49 9.4L109.49 9.4Q106.69 9.4 104.32 8.85 101.94 8.3 100.52 7.18 99.09 6.05 99.09 4.3L99.09 4.3Q99.09 2.65 100.49 1.4 101.89 0.15 104.44-0.5L104.44-0.5 104.79 0.3Q103.74 0.75 103.17 1.75 102.59 2.75 102.59 3.95L102.59 3.95Q102.59 6.15 104.64 7.35 106.69 8.55 110.04 8.55L110.04 8.55Q112.29 8.55 114.32 7.98 116.34 7.4 117.62 6.1 118.89 4.8 118.89 2.75L118.89 2.75Q118.89 1.15 117.74 0.08 116.59-1 113.19-1L113.19-1 109.69-1Q107.94-1 106.44-1.3 104.94-1.6 104.02-2.48 103.09-3.35 103.09-4.95L103.09-4.95Q103.09-6.75 104.59-8.35 106.09-9.95 109.64-11.5L109.64-11.5 110.24-11.05Q108.79-10.25 107.67-9.43 106.54-8.6 106.54-7.4L106.54-7.4Q106.54-5.8 108.84-5.8L108.84-5.8 114.79-5.8Q118.24-5.8 120.74-4.38 123.24-2.95 123.24 0.35L123.24 0.35Q123.24 2.7 121.72 4.78 120.19 6.85 117.14 8.13 114.09 9.4 109.49 9.4ZM109.79-10.65L109.79-10.65Q105.94-10.65 103.29-12.55 100.64-14.45 100.64-18.55L100.64-18.55Q100.64-22.7 103.29-24.6 105.94-26.5 109.79-26.5L109.79-26.5Q113.69-26.5 116.32-24.6 118.94-22.7 118.94-18.55L118.94-18.55Q118.94-14.45 116.32-12.55 113.69-10.65 109.79-10.65ZM109.79-11.55L109.79-11.55Q111.54-11.55 112.49-13.05 113.44-14.55 113.44-18.55L113.44-18.55Q113.44-22.55 112.49-24.08 111.54-25.6 109.79-25.6L109.79-25.6Q108.14-25.6 107.14-24.08 106.14-22.55 106.14-18.55L106.14-18.55Q106.14-14.55 107.14-13.05 108.14-11.55 109.79-11.55ZM117.19-22.3L117.19-22.3 116.29-22.65Q116.99-24.4 118.69-25.7 120.39-27 122.24-27L122.24-27Q123.64-27 124.47-26.23 125.29-25.45 125.29-24.05L125.29-24.05Q125.29-22.5 124.47-21.85 123.64-21.2 122.74-21.2L122.74-21.2Q121.94-21.2 121.27-21.75 120.59-22.3 120.49-23.48 120.39-24.65 121.24-26.5L121.24-26.5 121.79-26.3Q119.79-25.5 118.87-24.63 117.94-23.75 117.19-22.3ZM142.99-26.5L142.99-26.5Q144.44-26.5 145.46-25.9 146.49-25.3 147.01-24.38 147.54-23.45 147.54-22.3L147.54-22.3Q147.54-20.85 146.66-19.83 145.79-18.8 144.34-18.8L144.34-18.8Q143.09-18.8 142.21-19.55 141.34-20.3 141.34-21.6L141.34-21.6Q141.34-22.7 141.91-23.48 142.49-24.25 143.24-24.7L143.24-24.7Q142.74-25.1 142.04-25.05L142.04-25.05Q140.24-24.95 138.86-23.58 137.49-22.2 136.69-20.25 135.89-18.3 135.89-16.65L135.89-16.65 135.89-5.15Q135.89-2.7 137.24-1.88 138.59-1.05 140.99-1.05L140.99-1.05 140.99 0Q139.84-0.05 137.71-0.13 135.59-0.2 133.24-0.2L133.24-0.2Q131.44-0.2 129.64-0.13 127.84-0.05 126.89 0L126.89 0 126.89-1.05Q128.84-1.05 129.66-1.8 130.49-2.55 130.49-4.65L130.49-4.65 130.49-20.35Q130.49-22.6 129.74-23.68 128.99-24.75 126.89-24.75L126.89-24.75 126.89-25.8Q128.49-25.65 129.99-25.65L129.99-25.65Q131.69-25.65 133.16-25.83 134.64-26 135.89-26.35L135.89-26.35 135.89-20.6Q136.49-22.05 137.49-23.4 138.49-24.75 139.89-25.63 141.29-26.5 142.99-26.5ZM160.99-26.5L160.99-26.5Q165.39-26.5 167.89-23.85 170.39-21.2 170.39-15.45L170.39-15.45 153.14-15.45 153.04-16.4 165.09-16.4Q165.14-18.85 164.69-20.93 164.24-23 163.29-24.25 162.34-25.5 160.79-25.5L160.79-25.5Q158.64-25.5 157.06-23.23 155.49-20.95 155.14-15.95L155.14-15.95 155.29-15.7Q155.24-15 155.19-14.18 155.14-13.35 155.14-12.55L155.14-12.55Q155.14-9.1 156.19-6.75 157.24-4.4 158.94-3.23 160.64-2.05 162.39-2.05L162.39-2.05Q164.39-2.05 166.26-3.05 168.14-4.05 169.49-6.75L169.49-6.75 170.49-6.35Q169.89-4.65 168.64-3 167.39-1.35 165.44-0.33 163.49 0.7 160.89 0.7L160.89 0.7Q157.39 0.7 154.79-0.88 152.19-2.45 150.79-5.4 149.39-8.35 149.39-12.4L149.39-12.4Q149.39-16.85 150.84-20 152.29-23.15 154.91-24.83 157.54-26.5 160.99-26.5ZM180.53 0.35L180.53 0.35Q177.23 0.35 175.76-1.33 174.28-3 174.28-5.6L174.28-5.6Q174.28-7.75 175.28-9.1 176.28-10.45 177.86-11.33 179.43-12.2 181.21-12.83 182.98-13.45 184.56-14.03 186.13-14.6 187.16-15.35 188.18-16.1 188.18-17.25L188.18-17.25 188.18-20.65Q188.18-22.45 187.61-23.53 187.03-24.6 186.06-25.05 185.08-25.5 183.73-25.5L183.73-25.5Q182.58-25.5 181.28-25.18 179.98-24.85 179.23-23.9L179.23-23.9Q180.33-23.6 181.06-22.73 181.78-21.85 181.78-20.55L181.78-20.55Q181.78-19.15 180.86-18.35 179.93-17.55 178.53-17.55L178.53-17.55Q176.98-17.55 176.23-18.53 175.48-19.5 175.48-20.8L175.48-20.8Q175.48-22.15 176.16-23 176.83-23.85 177.93-24.6L177.93-24.6Q179.13-25.4 181.01-25.95 182.88-26.5 185.18-26.5L185.18-26.5Q187.33-26.5 188.91-26.03 190.48-25.55 191.53-24.5L191.53-24.5Q192.78-23.35 193.18-21.63 193.58-19.9 193.58-17.45L193.58-17.45 193.58-3.65Q193.58-2.45 193.88-1.9 194.18-1.35 194.98-1.35L194.98-1.35Q195.58-1.35 196.08-1.65 196.58-1.95 197.08-2.35L197.08-2.35 197.58-1.5Q196.53-0.65 195.46-0.15 194.38 0.35 192.73 0.35L192.73 0.35Q189.98 0.35 189.11-0.95 188.23-2.25 188.18-3.95L188.18-3.95Q186.73-1.5 184.76-0.58 182.78 0.35 180.53 0.35ZM183.28-2.05L183.28-2.05Q184.58-2.05 185.83-2.78 187.08-3.5 188.18-5.25L188.18-5.25 188.18-15.2Q187.48-14.15 186.06-13.5 184.63-12.85 183.16-12.08 181.68-11.3 180.63-10 179.58-8.7 179.58-6.4L179.58-6.4Q179.58-4.15 180.63-3.1 181.68-2.05 183.28-2.05ZM207.83-34.05L207.83-34.05 207.83-25.75 214.73-25.75 214.73-24.75 207.83-24.75 207.83-5.1Q207.83-3.05 208.58-2.2 209.33-1.35 210.73-1.35L210.73-1.35Q212.03-1.35 213.06-2.4 214.08-3.45 214.83-5.95L214.83-5.95 215.78-5.6Q215.18-2.95 213.66-1.13 212.13 0.7 209.18 0.7L209.18 0.7Q207.48 0.7 206.33 0.28 205.18-0.15 204.33-0.95L204.33-0.95Q203.23-2.1 202.83-3.7 202.43-5.3 202.43-7.95L202.43-7.95 202.43-24.75 197.83-24.75 197.83-25.75 202.43-25.75 202.43-33.05Q203.98-33.1 205.33-33.33 206.68-33.55 207.83-34.05ZM229.08-26.5L229.08-26.5Q233.48-26.5 235.98-23.85 238.48-21.2 238.48-15.45L238.48-15.45 221.23-15.45 221.13-16.4 233.18-16.4Q233.23-18.85 232.78-20.93 232.33-23 231.38-24.25 230.43-25.5 228.88-25.5L228.88-25.5Q226.73-25.5 225.15-23.23 223.58-20.95 223.23-15.95L223.23-15.95 223.38-15.7Q223.33-15 223.28-14.18 223.23-13.35 223.23-12.55L223.23-12.55Q223.23-9.1 224.28-6.75 225.33-4.4 227.03-3.23 228.73-2.05 230.48-2.05L230.48-2.05Q232.48-2.05 234.35-3.05 236.23-4.05 237.58-6.75L237.58-6.75 238.58-6.35Q237.98-4.65 236.73-3 235.48-1.35 233.53-0.33 231.58 0.7 228.98 0.7L228.98 0.7Q225.48 0.7 222.88-0.88 220.28-2.45 218.88-5.4 217.48-8.35 217.48-12.4L217.48-12.4Q217.48-16.85 218.93-20 220.38-23.15 223-24.83 225.63-26.5 229.08-26.5ZM251.23-26.5L251.23-26.5Q253.23-26.5 254.7-25.88 256.18-25.25 256.83-24.75L256.83-24.75Q258.48-23.45 258.88-26.45L258.88-26.45 259.98-26.45Q259.88-25.05 259.83-23.08 259.78-21.1 259.78-17.85L259.78-17.85 258.68-17.85Q258.38-19.7 257.65-21.45 256.93-23.2 255.55-24.35 254.18-25.5 251.98-25.5L251.98-25.5Q250.33-25.5 249.23-24.58 248.13-23.65 248.13-21.85L248.13-21.85Q248.13-20.35 249.03-19.25 249.93-18.15 251.35-17.2 252.78-16.25 254.43-15.15L254.43-15.15Q257.18-13.3 259.08-11.4 260.98-9.5 260.98-6.45L260.98-6.45Q260.98-4.15 259.75-2.55 258.53-0.95 256.53-0.13 254.53 0.7 252.13 0.7L252.13 0.7Q250.93 0.7 249.88 0.48 248.83 0.25 247.93-0.1L247.93-0.1Q247.38-0.4 246.85-0.73 246.33-1.05 245.83-1.35L245.83-1.35Q245.33-1.7 244.93-1.25 244.53-0.8 244.33 0.35L244.33 0.35 243.23 0.35Q243.33-1.25 243.38-3.55 243.43-5.85 243.43-9.65L243.43-9.65 244.53-9.65Q244.88-6.9 245.58-4.8 246.28-2.7 247.65-1.53 249.03-0.35 251.43-0.35L251.43-0.35Q252.83-0.35 254.18-1.33 255.53-2.3 255.53-4.7L255.53-4.7Q255.53-6.9 254-8.33 252.48-9.75 250.08-11.35L250.08-11.35Q248.38-12.55 246.85-13.73 245.33-14.9 244.38-16.38 243.43-17.85 243.43-19.9L243.43-19.9Q243.43-22.15 244.5-23.6 245.58-25.05 247.38-25.78 249.18-26.5 251.23-26.5ZM273.27-34.05L273.27-34.05 273.27-25.75 280.17-25.75 280.17-24.75 273.27-24.75 273.27-5.1Q273.27-3.05 274.02-2.2 274.77-1.35 276.17-1.35L276.17-1.35Q277.47-1.35 278.5-2.4 279.52-3.45 280.27-5.95L280.27-5.95 281.22-5.6Q280.62-2.95 279.1-1.13 277.57 0.7 274.62 0.7L274.62 0.7Q272.92 0.7 271.77 0.28 270.62-0.15 269.77-0.95L269.77-0.95Q268.67-2.1 268.27-3.7 267.87-5.3 267.87-7.95L267.87-7.95 267.87-24.75 263.27-24.75 263.27-25.75 267.87-25.75 267.87-33.05Q269.42-33.1 270.77-33.33 272.12-33.55 273.27-34.05ZM303.07 9.4L303.07 9.4Q300.27 9.4 297.89 8.85 295.52 8.3 294.09 7.18 292.67 6.05 292.67 4.3L292.67 4.3Q292.67 2.65 294.07 1.4 295.47 0.15 298.02-0.5L298.02-0.5 298.37 0.3Q297.32 0.75 296.74 1.75 296.17 2.75 296.17 3.95L296.17 3.95Q296.17 6.15 298.22 7.35 300.27 8.55 303.62 8.55L303.62 8.55Q305.87 8.55 307.89 7.98 309.92 7.4 311.19 6.1 312.47 4.8 312.47 2.75L312.47 2.75Q312.47 1.15 311.32 0.08 310.17-1 306.77-1L306.77-1 303.27-1Q301.52-1 300.02-1.3 298.52-1.6 297.59-2.48 296.67-3.35 296.67-4.95L296.67-4.95Q296.67-6.75 298.17-8.35 299.67-9.95 303.22-11.5L303.22-11.5 303.82-11.05Q302.37-10.25 301.24-9.43 300.12-8.6 300.12-7.4L300.12-7.4Q300.12-5.8 302.42-5.8L302.42-5.8 308.37-5.8Q311.82-5.8 314.32-4.38 316.82-2.95 316.82 0.35L316.82 0.35Q316.82 2.7 315.29 4.78 313.77 6.85 310.72 8.13 307.67 9.4 303.07 9.4ZM303.37-10.65L303.37-10.65Q299.52-10.65 296.87-12.55 294.22-14.45 294.22-18.55L294.22-18.55Q294.22-22.7 296.87-24.6 299.52-26.5 303.37-26.5L303.37-26.5Q307.27-26.5 309.89-24.6 312.52-22.7 312.52-18.55L312.52-18.55Q312.52-14.45 309.89-12.55 307.27-10.65 303.37-10.65ZM303.37-11.55L303.37-11.55Q305.12-11.55 306.07-13.05 307.02-14.55 307.02-18.55L307.02-18.55Q307.02-22.55 306.07-24.08 305.12-25.6 303.37-25.6L303.37-25.6Q301.72-25.6 300.72-24.08 299.72-22.55 299.72-18.55L299.72-18.55Q299.72-14.55 300.72-13.05 301.72-11.55 303.37-11.55ZM310.77-22.3L310.77-22.3 309.87-22.65Q310.57-24.4 312.27-25.7 313.97-27 315.82-27L315.82-27Q317.22-27 318.04-26.23 318.87-25.45 318.87-24.05L318.87-24.05Q318.87-22.5 318.04-21.85 317.22-21.2 316.32-21.2L316.32-21.2Q315.52-21.2 314.84-21.75 314.17-22.3 314.07-23.48 313.97-24.65 314.82-26.5L314.82-26.5 315.37-26.3Q313.37-25.5 312.44-24.63 311.52-23.75 310.77-22.3ZM326.67 0.35L326.67 0.35Q323.37 0.35 321.89-1.33 320.42-3 320.42-5.6L320.42-5.6Q320.42-7.75 321.42-9.1 322.42-10.45 323.99-11.33 325.56-12.2 327.34-12.83 329.12-13.45 330.69-14.03 332.26-14.6 333.29-15.35 334.31-16.1 334.31-17.25L334.31-17.25 334.31-20.65Q334.31-22.45 333.74-23.53 333.17-24.6 332.19-25.05 331.22-25.5 329.87-25.5L329.87-25.5Q328.72-25.5 327.42-25.18 326.12-24.85 325.37-23.9L325.37-23.9Q326.47-23.6 327.19-22.73 327.92-21.85 327.92-20.55L327.92-20.55Q327.92-19.15 326.99-18.35 326.06-17.55 324.67-17.55L324.67-17.55Q323.12-17.55 322.37-18.53 321.62-19.5 321.62-20.8L321.62-20.8Q321.62-22.15 322.29-23 322.97-23.85 324.06-24.6L324.06-24.6Q325.26-25.4 327.14-25.95 329.01-26.5 331.31-26.5L331.31-26.5Q333.47-26.5 335.04-26.03 336.62-25.55 337.67-24.5L337.67-24.5Q338.92-23.35 339.31-21.63 339.72-19.9 339.72-17.45L339.72-17.45 339.72-3.65Q339.72-2.45 340.01-1.9 340.31-1.35 341.12-1.35L341.12-1.35Q341.72-1.35 342.22-1.65 342.72-1.95 343.22-2.35L343.22-2.35 343.72-1.5Q342.67-0.65 341.59-0.15 340.51 0.35 338.87 0.35L338.87 0.35Q336.12 0.35 335.24-0.95 334.37-2.25 334.31-3.95L334.31-3.95Q332.87-1.5 330.89-0.58 328.92 0.35 326.67 0.35ZM329.42-2.05L329.42-2.05Q330.72-2.05 331.97-2.78 333.22-3.5 334.31-5.25L334.31-5.25 334.31-15.2Q333.62-14.15 332.19-13.5 330.76-12.85 329.29-12.08 327.81-11.3 326.76-10 325.72-8.7 325.72-6.4L325.72-6.4Q325.72-4.15 326.76-3.1 327.81-2.05 329.42-2.05ZM362.26-26.5L362.26-26.5Q364.16-26.5 365.46-25.98 366.76-25.45 367.56-24.55L367.56-24.55Q368.46-23.6 368.81-22.03 369.16-20.45 369.16-18.05L369.16-18.05 369.16-4.65Q369.16-2.55 369.96-1.8 370.76-1.05 372.66-1.05L372.66-1.05 372.66 0Q371.81-0.05 370.04-0.13 368.26-0.2 366.56-0.2L366.56-0.2Q364.86-0.2 363.24-0.13 361.61-0.05 360.76 0L360.76 0 360.76-1.05Q362.41-1.05 363.09-1.8 363.76-2.55 363.76-4.65L363.76-4.65 363.76-19.45Q363.76-20.9 363.56-22.08 363.36-23.25 362.64-23.98 361.91-24.7 360.36-24.7L360.36-24.7Q358.61-24.7 357.24-23.65 355.86-22.6 355.04-20.78 354.21-18.95 354.21-16.7L354.21-16.7 354.21-4.65Q354.21-2.55 354.91-1.8 355.61-1.05 357.21-1.05L357.21-1.05 357.21 0Q356.41-0.05 354.81-0.13 353.21-0.2 351.51-0.2L351.51-0.2Q349.81-0.2 347.96-0.13 346.11-0.05 345.21 0L345.21 0 345.21-1.05Q347.16-1.05 347.99-1.8 348.81-2.55 348.81-4.65L348.81-4.65 348.81-20.35Q348.81-22.6 348.06-23.68 347.31-24.75 345.21-24.75L345.21-24.75 345.21-25.8Q346.81-25.65 348.31-25.65L348.31-25.65Q350.01-25.65 351.49-25.83 352.96-26 354.21-26.35L354.21-26.35 354.21-20.9Q355.51-23.9 357.69-25.2 359.86-26.5 362.26-26.5ZM377.31-26.5L377.31-26.5Q379.21-26.5 380.51-25.98 381.81-25.45 382.61-24.55L382.61-24.55Q383.51-23.6 383.86-22.03 384.21-20.45 384.21-18.05L384.21-18.05 384.21-4.65Q384.21-2.55 385.04-1.8 385.86-1.05 387.81-1.05L387.81-1.05 387.81 0Q386.96-0.05 385.16-0.13 383.36-0.2 381.61-0.2L381.61-0.2Q379.91-0.2 378.29-0.13 376.66-0.05 375.81 0L375.81 0 375.81-1.05Q377.46-1.05 378.14-1.8 378.81-2.55 378.81-4.65L378.81-4.65 378.81-19.45Q378.81-20.9 378.61-22.08 378.41-23.25 377.66-23.98 376.91-24.7 375.31-24.7L375.31-24.7Q372.71-24.7 370.94-22.38 369.16-20.05 369.16-16.65L369.16-16.65 368.96-20.8Q370.31-24.1 372.59-25.3 374.86-26.5 377.31-26.5ZM402.31-26.5L402.31-26.5Q406.71-26.5 409.21-23.85 411.71-21.2 411.71-15.45L411.71-15.45 394.46-15.45 394.36-16.4 406.41-16.4Q406.46-18.85 406.01-20.93 405.56-23 404.61-24.25 403.66-25.5 402.11-25.5L402.11-25.5Q399.96-25.5 398.38-23.23 396.81-20.95 396.46-15.95L396.46-15.95 396.61-15.7Q396.56-15 396.51-14.18 396.46-13.35 396.46-12.55L396.46-12.55Q396.46-9.1 397.51-6.75 398.56-4.4 400.26-3.23 401.96-2.05 403.71-2.05L403.71-2.05Q405.71-2.05 407.58-3.05 409.46-4.05 410.81-6.75L410.81-6.75 411.81-6.35Q411.21-4.65 409.96-3 408.71-1.35 406.76-0.33 404.81 0.7 402.21 0.7L402.21 0.7Q398.71 0.7 396.11-0.88 393.51-2.45 392.11-5.4 390.71-8.35 390.71-12.4L390.71-12.4Q390.71-16.85 392.16-20 393.61-23.15 396.24-24.83 398.86-26.5 402.31-26.5ZM439.86-26.5L439.86-26.5Q443.2-26.5 445.81-25.1 448.4-23.7 449.95-20.7 451.5-17.7 451.5-12.85L451.5-12.85Q451.5-8 449.95-5.03 448.4-2.05 445.81-0.68 443.2 0.7 439.86 0.7L439.86 0.7Q436.56 0.7 433.9-0.68 431.25-2.05 429.73-5.03 428.2-8 428.2-12.85L428.2-12.85Q428.2-17.7 429.73-20.7 431.25-23.7 433.9-25.1 436.56-26.5 439.86-26.5ZM439.86-25.5L439.86-25.5Q437.25-25.5 435.61-22.53 433.95-19.55 433.95-12.85L433.95-12.85Q433.95-6.15 435.61-3.23 437.25-0.3 439.86-0.3L439.86-0.3Q442.4-0.3 444.08-3.23 445.75-6.15 445.75-12.85L445.75-12.85Q445.75-19.55 444.08-22.53 442.4-25.5 439.86-25.5ZM467.7-39.1L467.7-39.1Q469.2-39.1 470.35-38.7 471.5-38.3 472.4-37.65L472.4-37.65Q473.1-37.05 473.55-36.2 474-35.35 474-34.35L474-34.35Q474-33.1 473.18-32.25 472.35-31.4 471.05-31.4L471.05-31.4Q469.75-31.4 468.85-32.2 467.95-33 467.95-34.4L467.95-34.4Q467.95-35.55 468.58-36.3 469.2-37.05 470.3-37.35L470.3-37.35Q470.15-37.75 469.6-38.02 469.05-38.3 468.1-38.3L468.1-38.3Q467-38.3 466.23-37.85 465.45-37.4 465-36.65L465-36.65Q464.45-35.7 464.28-33.83 464.1-31.95 464.1-28.1L464.1-28.1 464.1-25.75 469.45-25.75 469.45-24.75 464.1-24.75 464.1-5.15Q464.1-2.7 465.48-1.88 466.85-1.05 469.2-1.05L469.2-1.05 469.2 0Q468-0.05 465.83-0.13 463.65-0.2 461.2-0.2L461.2-0.2Q459.45-0.2 457.73-0.13 456-0.05 455.1 0L455.1 0 455.1-1.05Q457.05-1.05 457.88-1.8 458.7-2.55 458.7-4.65L458.7-4.65 458.7-24.75 454.9-24.75 454.9-25.75 458.7-25.75Q458.7-30.2 459.33-32.55 459.95-34.9 461.45-36.6L461.45-36.6Q462.5-37.7 464.13-38.4 465.75-39.1 467.7-39.1ZM490.9 0.35L490.9 0.35Q487.6 0.35 486.12-1.33 484.65-3 484.65-5.6L484.65-5.6Q484.65-7.75 485.65-9.1 486.65-10.45 488.22-11.33 489.8-12.2 491.57-12.83 493.35-13.45 494.92-14.03 496.5-14.6 497.52-15.35 498.55-16.1 498.55-17.25L498.55-17.25 498.55-20.65Q498.55-22.45 497.97-23.53 497.4-24.6 496.42-25.05 495.45-25.5 494.1-25.5L494.1-25.5Q492.95-25.5 491.65-25.18 490.35-24.85 489.6-23.9L489.6-23.9Q490.7-23.6 491.42-22.73 492.15-21.85 492.15-20.55L492.15-20.55Q492.15-19.15 491.22-18.35 490.3-17.55 488.9-17.55L488.9-17.55Q487.35-17.55 486.6-18.53 485.85-19.5 485.85-20.8L485.85-20.8Q485.85-22.15 486.52-23 487.2-23.85 488.3-24.6L488.3-24.6Q489.5-25.4 491.37-25.95 493.25-26.5 495.55-26.5L495.55-26.5Q497.7-26.5 499.27-26.03 500.85-25.55 501.9-24.5L501.9-24.5Q503.15-23.35 503.55-21.63 503.95-19.9 503.95-17.45L503.95-17.45 503.95-3.65Q503.95-2.45 504.25-1.9 504.55-1.35 505.35-1.35L505.35-1.35Q505.95-1.35 506.45-1.65 506.95-1.95 507.45-2.35L507.45-2.35 507.95-1.5Q506.9-0.65 505.82-0.15 504.75 0.35 503.1 0.35L503.1 0.35Q500.35 0.35 499.47-0.95 498.6-2.25 498.55-3.95L498.55-3.95Q497.1-1.5 495.12-0.58 493.15 0.35 490.9 0.35ZM493.65-2.05L493.65-2.05Q494.95-2.05 496.2-2.78 497.45-3.5 498.55-5.25L498.55-5.25 498.55-15.2Q497.85-14.15 496.42-13.5 495-12.85 493.52-12.08 492.05-11.3 491-10 489.95-8.7 489.95-6.4L489.95-6.4Q489.95-4.15 491-3.1 492.05-2.05 493.65-2.05ZM518.14-39.2L518.14-39.2 518.14-4.65Q518.14-2.55 518.97-1.8 519.79-1.05 521.75-1.05L521.75-1.05 521.75 0Q520.89-0.05 519.1-0.13 517.29-0.2 515.5-0.2L515.5-0.2Q513.69-0.2 511.87-0.13 510.04-0.05 509.14 0L509.14 0 509.14-1.05Q511.09-1.05 511.92-1.8 512.75-2.55 512.75-4.65L512.75-4.65 512.75-33.2Q512.75-35.45 511.99-36.52 511.24-37.6 509.14-37.6L509.14-37.6 509.14-38.65Q510.74-38.5 512.25-38.5L512.25-38.5Q513.89-38.5 515.39-38.68 516.89-38.85 518.14-39.2ZM532.94-39.2L532.94-39.2 532.94-4.65Q532.94-2.55 533.77-1.8 534.59-1.05 536.54-1.05L536.54-1.05 536.54 0Q535.69-0.05 533.89-0.13 532.09-0.2 530.29-0.2L530.29-0.2Q528.49-0.2 526.67-0.13 524.84-0.05 523.94 0L523.94 0 523.94-1.05Q525.89-1.05 526.72-1.8 527.54-2.55 527.54-4.65L527.54-4.65 527.54-33.2Q527.54-35.45 526.79-36.52 526.04-37.6 523.94-37.6L523.94-37.6 523.94-38.65Q525.54-38.5 527.04-38.5L527.04-38.5Q528.69-38.5 530.19-38.68 531.69-38.85 532.94-39.2ZM559.24-34.05L559.24-34.05 559.24-25.75 566.14-25.75 566.14-24.75 559.24-24.75 559.24-5.1Q559.24-3.05 559.99-2.2 560.74-1.35 562.14-1.35L562.14-1.35Q563.44-1.35 564.46-2.4 565.49-3.45 566.24-5.95L566.24-5.95 567.19-5.6Q566.59-2.95 565.06-1.13 563.54 0.7 560.59 0.7L560.59 0.7Q558.89 0.7 557.74 0.28 556.59-0.15 555.74-0.95L555.74-0.95Q554.64-2.1 554.24-3.7 553.84-5.3 553.84-7.95L553.84-7.95 553.84-24.75 549.24-24.75 549.24-25.75 553.84-25.75 553.84-33.05Q555.39-33.1 556.74-33.33 558.09-33.55 559.24-34.05ZM574.13-38.4L574.13-38.4Q575.68-38.4 576.73-37.43 577.78-36.45 577.78-35L577.78-35Q577.78-33.55 576.73-32.58 575.68-31.6 574.13-31.6L574.13-31.6Q572.58-31.6 571.53-32.58 570.48-33.55 570.48-35L570.48-35Q570.48-36.45 571.53-37.43 572.58-38.4 574.13-38.4ZM577.13-26.35L577.13-26.35 577.13-4.65Q577.13-2.55 577.96-1.8 578.78-1.05 580.73-1.05L580.73-1.05 580.73 0Q579.88-0.05 578.11-0.13 576.33-0.2 574.48-0.2L574.48-0.2Q572.73-0.2 570.88-0.13 569.03-0.05 568.13 0L568.13 0 568.13-1.05Q570.08-1.05 570.91-1.8 571.73-2.55 571.73-4.65L571.73-4.65 571.73-20.35Q571.73-22.6 570.98-23.68 570.23-24.75 568.13-24.75L568.13-24.75 568.13-25.8Q569.73-25.65 571.23-25.65L571.23-25.65Q572.93-25.65 574.41-25.83 575.88-26 577.13-26.35ZM600.18-26.5L600.18-26.5Q602.08-26.5 603.38-25.98 604.68-25.45 605.48-24.55L605.48-24.55Q606.38-23.6 606.73-22.03 607.08-20.45 607.08-18.05L607.08-18.05 607.08-4.65Q607.08-2.55 607.88-1.8 608.68-1.05 610.58-1.05L610.58-1.05 610.58 0Q609.73-0.05 607.96-0.13 606.18-0.2 604.48-0.2L604.48-0.2Q602.78-0.2 601.16-0.13 599.53-0.05 598.68 0L598.68 0 598.68-1.05Q600.33-1.05 601.01-1.8 601.68-2.55 601.68-4.65L601.68-4.65 601.68-19.45Q601.68-20.9 601.48-22.08 601.28-23.25 600.56-23.98 599.83-24.7 598.28-24.7L598.28-24.7Q596.53-24.7 595.16-23.65 593.78-22.6 592.96-20.78 592.13-18.95 592.13-16.7L592.13-16.7 592.13-4.65Q592.13-2.55 592.83-1.8 593.53-1.05 595.13-1.05L595.13-1.05 595.13 0Q594.33-0.05 592.73-0.13 591.13-0.2 589.43-0.2L589.43-0.2Q587.73-0.2 585.88-0.13 584.03-0.05 583.13 0L583.13 0 583.13-1.05Q585.08-1.05 585.91-1.8 586.73-2.55 586.73-4.65L586.73-4.65 586.73-20.35Q586.73-22.6 585.98-23.68 585.23-24.75 583.13-24.75L583.13-24.75 583.13-25.8Q584.73-25.65 586.23-25.65L586.23-25.65Q587.93-25.65 589.41-25.83 590.88-26 592.13-26.35L592.13-26.35 592.13-20.9Q593.43-23.9 595.61-25.2 597.78-26.5 600.18-26.5ZM615.23-26.5L615.23-26.5Q617.13-26.5 618.43-25.98 619.73-25.45 620.53-24.55L620.53-24.55Q621.43-23.6 621.78-22.03 622.13-20.45 622.13-18.05L622.13-18.05 622.13-4.65Q622.13-2.55 622.96-1.8 623.78-1.05 625.73-1.05L625.73-1.05 625.73 0Q624.88-0.05 623.08-0.13 621.28-0.2 619.53-0.2L619.53-0.2Q617.83-0.2 616.21-0.13 614.58-0.05 613.73 0L613.73 0 613.73-1.05Q615.38-1.05 616.06-1.8 616.73-2.55 616.73-4.65L616.73-4.65 616.73-19.45Q616.73-20.9 616.53-22.08 616.33-23.25 615.58-23.98 614.83-24.7 613.23-24.7L613.23-24.7Q610.63-24.7 608.86-22.38 607.08-20.05 607.08-16.65L607.08-16.65 606.88-20.8Q608.23-24.1 610.51-25.3 612.78-26.5 615.23-26.5ZM640.23-26.5L640.23-26.5Q644.63-26.5 647.13-23.85 649.63-21.2 649.63-15.45L649.63-15.45 632.38-15.45 632.28-16.4 644.33-16.4Q644.38-18.85 643.93-20.93 643.48-23 642.53-24.25 641.58-25.5 640.03-25.5L640.03-25.5Q637.88-25.5 636.3-23.23 634.73-20.95 634.38-15.95L634.38-15.95 634.53-15.7Q634.48-15 634.43-14.18 634.38-13.35 634.38-12.55L634.38-12.55Q634.38-9.1 635.43-6.75 636.48-4.4 638.18-3.23 639.88-2.05 641.63-2.05L641.63-2.05Q643.63-2.05 645.5-3.05 647.38-4.05 648.73-6.75L648.73-6.75 649.73-6.35Q649.13-4.65 647.88-3 646.63-1.35 644.68-0.33 642.73 0.7 640.13 0.7L640.13 0.7Q636.63 0.7 634.03-0.88 631.43-2.45 630.03-5.4 628.63-8.35 628.63-12.4L628.63-12.4Q628.63-16.85 630.08-20 631.53-23.15 634.15-24.83 636.78-26.5 640.23-26.5ZM658.18-6.15L658.18-6.15Q659.68-6.15 660.7-5.18 661.73-4.2 661.73-2.7L661.73-2.7Q661.73-1.25 660.7-0.28 659.68 0.7 658.18 0.7L658.18 0.7Q656.68 0.7 655.65-0.28 654.63-1.25 654.63-2.7L654.63-2.7Q654.63-4.2 655.65-5.18 656.68-6.15 658.18-6.15Z" opacity="1" transform="matrix(1,0,0,1,0,0)" fill="#ffffff" class="slogan-text-1" data-fill-palette-color="secondary" id="text-1"></path></svg></g></svg></g></svg></g></svg></g><g></g></svg></g><defs></defs></svg><rect width="395.52" height="127.4309132210537" fill="none" stroke="none" visibility="hidden"></rect></g></svg></g></svg>